<svg width="123" height="109" viewBox="0 0 123 109" fill="none" xmlns="http://www.w3.org/2000/svg">
<g clip-path="url(#clip0_599_3575)">
<path d="M9.59375 3.90286C9.17805 3.4886 8.95205 2.9384 8.96412 2.37004C8.97619 1.80168 9.22537 1.26033 9.65832 0.861868C10.0913 0.463402 10.6736 0.239484 11.2806 0.238044C11.8877 0.236604 12.4712 0.457758 12.9063 0.854165L19.3344 6.97595C19.7607 7.38291 19.9995 7.93023 19.9995 8.5003C19.9995 9.07037 19.7607 9.61769 19.3344 10.0246L13.0365 16.023C12.8246 16.2341 12.5698 16.4035 12.2871 16.5212C12.0043 16.6389 11.6993 16.7024 11.3899 16.7082C11.0806 16.714 10.7731 16.6618 10.4856 16.5547C10.198 16.4477 9.93624 16.2879 9.71556 16.0848C9.49488 15.8817 9.31975 15.6393 9.20046 15.372C9.08117 15.1046 9.02013 14.8176 9.02091 14.5279C9.0217 14.2381 9.08429 13.9514 9.20502 13.6846C9.32576 13.4178 9.50219 13.1763 9.72397 12.9743L12.1787 10.6298L2.30291 10.5856C1.68685 10.5808 1.09808 10.3469 0.666128 9.93556C0.234173 9.52419 -0.00558662 8.96898 -0.00040604 8.39207C0.00477454 7.81516 0.254471 7.2638 0.693752 6.8593C1.13303 6.45479 1.72592 6.23026 2.34197 6.23512L12.0843 6.2778L9.59375 3.90286Z" fill="black"/>
</g>
<defs>
<clipPath id="clip0_599_3575">
<rect width="122.88" height="108.06" fill="white"/>
</clipPath>
</defs>
</svg>
